<svg id="Logo.png" xmlns="http://www.w3.org/2000/svg" width="249.031" height="62" viewBox="0 0 249.031 62">
  <metadata><?xpacket begin="﻿" id="W5M0MpCehiHzreSzNTczkc9d"?>
<x:xmpmeta xmlns:x="adobe:ns:meta/" x:xmptk="Adobe XMP Core 5.6-c142 79.160924, 2017/07/13-01:06:39        ">
   <rdf:RDF xmlns:rdf="http://www.w3.org/1999/02/22-rdf-syntax-ns#">
      <rdf:Description rdf:about=""/>
   </rdf:RDF>
</x:xmpmeta>
                                                                                                    
                                                                                                    
                                                                                                    
                                                                                                    
                                                                                                    
                                                                                                    
                                                                                                    
                                                                                                    
                                                                                                    
                                                                                                    
                                                                                                    
                                                                                                    
                                                                                                    
                                                                                                    
                                                                                                    
                                                                                                    
                                                                                                    
                                                                                                    
                                                                                                    
                                                                                                    
                           
<?xpacket end="w"?></metadata>
<defs>
    <style>
      .cls-1 {
        font-size: 17.416px;
        font-family: Montserrat;
        font-weight: 600;
      }

      .cls-1, .cls-2 {
        fill: #fff;
      }

      .cls-2 {
        fill-rule: evenodd;
      }
    </style>
  </defs>
  <text id="BlueRex" class="cls-1" transform="translate(76.33 49.725) scale(2.393 2.406)">BlueRex</text>
  <path id="Shape" class="cls-2" d="M127.069,47.695c6.452,2.081,10.275,8.223,8.54,13.721l-12.848,40.7c-1.735,5.5-8.371,8.266-14.823,6.185S97.664,100.08,99.4,94.583l12.848-40.7C113.982,48.384,120.618,45.614,127.069,47.695ZM145.5,65.923c4.193,1.352,6.677,5.344,5.55,8.917l-8.35,26.453c-1.128,3.572-5.44,5.372-9.633,4.02s-6.678-5.344-5.55-8.917l8.35-26.452C137,66.37,141.308,64.57,145.5,65.923ZM101.247,53.01c4.193,1.352,6.677,5.344,5.55,8.917l-8.35,26.452c-1.128,3.573-5.441,5.373-9.633,4.02s-6.677-5.344-5.55-8.917l8.349-26.452C92.741,53.457,97.054,51.657,101.247,53.01Z" transform="translate(-82.969 -47)"/>
</svg>
